PathFileType	4	(X/Y/Z)	pose_F01_0-96.trc
DataRate	CameraRate	NumFrames	NumMarkers	Units	OrigDataRate	OrigDataStartFrame	OrigNumFrames
30	30	6	21	m	30	48	96
Frame#	Time	CHip			RHip			RKnee			RAnkle			RBigToe			RSmallToe			RHeel			LHip			LKnee			LAnkle			LBigToe			LSmallToe			LHeel			Neck			Nose			RShoulder			RElbow			RWrist			LShoulder			LElbow			LWrist			
		X1	Y1	Z1	X2	Y2	Z2	X3	Y3	Z3	X4	Y4	Z4	X5	Y5	Z5	X6	Y6	Z6	X7	Y7	Z7	X8	Y8	Z8	X9	Y9	Z9	X10	Y10	Z10	X11	Y11	Z11	X12	Y12	Z12	X13	Y13	Z13	X14	Y14	Z14	X15	Y15	Z15	X16	Y16	Z16	X17	Y17	Z17	X18	Y18	Z18	X19	Y19	Z19	X20	Y20	Z20	X21	Y21	Z21	
48	1.6	-0.22805598182965603	1.8868017465984324	-0.6401778780311607	-0.2393029721806031	1.8833829998914327	-0.5736825987115655	-0.2421684788436304	1.7236095989263727	-0.4829875450795106	-0.26571458996254355	1.5693400747290902	-0.3835508730841301	-0.24025079859500986	1.5168025079912897	-0.353945946629563	-0.2502329163847036	1.5215559298174164	-0.32855123741126024	-0.2528342457267648	1.5681100209797034	-0.39945258569334985	-0.21902944670021054	1.888052452576248	-0.6986592027967092	-0.23576388674505167	1.7144543349078987	-0.6668848788887034													-0.2475247452598783	2.0583422073461626	-0.687267230245233	-0.2183655238543897	2.1211179626406156	-0.6619351691917696	-0.26464280586468625	2.0596556584965104	-0.6060302107505778	-0.26731063650129283	1.9678380391496901	-0.5660474165882726	-0.24928307470881148	1.8877995718631673	-0.5163525263992224	-0.22751432524145662	2.053574331908149	-0.7741846599348423	-0.21959249481423126	1.95983401925857	-0.7770898184615144	-0.20815971781024098	1.8826503115433424	-0.7651869416169699
49	1.6333333333333333	-0.23004400404194683	1.8848748296673616	-0.6465073476190665	-0.24128970220798607	1.8844723461573007	-0.5804369103067062	-0.24396773980341227	1.7329770074341884	-0.495402125828931	-0.262774794729328	1.5701315600899317	-0.3855500224132479	-0.23857886323781785	1.515313108566449	-0.3555326780525896	-0.2489375990502677	1.5201412482003491	-0.3293609349760355	-0.2528342457267648	1.5681100209797034	-0.39945258569334985	-0.22009680583000968	1.8861953880303162	-0.7018037007085016	-0.23576388674505167	1.7144543349078987	-0.6668848788887034													-0.24733191492385176	2.058596928476334	-0.6961130857947372	-0.2188207304226875	2.1240953395756175	-0.6741579209054394	-0.2613895569803627	2.0611030612808476	-0.6139601268856173	-0.2663238992066085	1.9698300379499754	-0.5717342418768825	-0.25223286759222435	1.8875008166312468	-0.5261487647077826	-0.23019265228749702	2.051642306591383	-0.7833990615595957	-0.2207768974589867	1.9576996051262412	-0.791197987736861	-0.21102428233955234	1.877009919460917	-0.7655490386325748
50	1.6666666666666667	-0.23128737985875622	1.8807142592216957	-0.6492850754404966	-0.24563367651461573	1.8819759831972516	-0.5842615671615512	-0.2405084167103504	1.7293035129627914	-0.4944339317010808	-0.25983499949611255	1.570923045450773	-0.38754917174236564	-0.23578460169575416	1.5141239974259164	-0.3585053650416844	-0.24589882601648366	1.5197762963212085	-0.33280298326737306	-0.2528342457267648	1.5681100209797034	-0.39945258569334985	-0.22231408292680493	1.8815022771984362	-0.7075098527631628	-0.23576388674505167	1.7144543349078987	-0.6668848788887034													-0.2448107450122232	2.058716270396601	-0.7065278027863715	-0.21946470821598216	2.124561860514756	-0.6852514424623429	-0.2581706007686474	2.062761642218797	-0.6219854071844785	-0.26811763586686027	1.9708795344886083	-0.5782129985253232	-0.2494591102883266	1.891522366231212	-0.5291120639840342	-0.22964908014752514	2.0516579405699735	-0.7916692922674213	-0.21942222635911532	1.9555504960263153	-0.7971144394431424	-0.9921111775543909	1.797240806535011	-0.012247478600836973
51	1.7	-0.23365511177184708	1.8847921309679534	-0.6589506526109761	-0.24533142661278942	1.8843854165654408	-0.5930852694752874	-0.2399193059121716	1.7248349535970773	-0.4946133025393723	-0.2568952042628971	1.5717145308116143	-0.38954832107148346	-0.23639972889707175	1.5152135486331064	-0.3581398816556938	-0.24437360403687236	1.5224498632493368	-0.3351669950909093	-0.2528342457267648	1.5681100209797034	-0.39945258569334985	-0.2256560507680884	1.8835247864506932	-0.7201006391036856	-0.23576388674505167	1.7144543349078987	-0.6668848788887034													-0.24023668867783002	2.0576452782062726	-0.7192743094459296	-0.22117071088133478	2.1248852428712643	-0.6914585018427972	-0.25593101962032994	2.0632298192450444	-0.6323683793217489	-0.2700314703552934	1.970760318170373	-0.5844463377098522	-0.2516314253555556	1.8950883090284043	-0.535746163129962	-0.2268090450166426	2.0518310903533856	-0.8020399537770623	-0.22187990683729983	1.9582508224174573	-0.8059131247396654	-0.21559011248948248	1.8743821142048445	-0.7805612079916749
52	1.7333333333333334	-0.235912392124197	1.8787852887973155	-0.6647401673721659	-0.24730524457704764	1.8808518836456178	-0.5991498827608167	-0.24149545047115	1.7298569948039506	-0.5066719031174419	-0.25395540902968156	1.5725060161724556	-0.3915474704006012	-0.2368688660567528	1.5150137032581268	-0.3576507494700245	-0.24453337386854335	1.5232542966134215	-0.3352171904665724	-0.2528342457267648	1.5681100209797034	-0.39945258569334985	-0.2265578167844811	1.8790291236578895	-0.7228908548268509	-0.23576388674505167	1.7144543349078987	-0.6668848788887034													-0.24278895334981349	2.0566102958498385	-0.7278522509576548	-0.2236848845482334	2.126498006711706	-0.7009308353265536	-0.25852385675265466	2.0646574064852796	-0.6414582949729157	-0.2710429363396663	1.9729687469350454	-0.5880453183731592	-0.24943335466155817	1.894990523476921	-0.5466076283371222	-0.2323674429365097	2.0510225603418295	-0.8111344768178702	-0.22514296618930152	1.9564969562954546	-0.817321353508444	-0.9515178477780135	1.7962612586622904	-0.07667857533915967
53	1.7666666666666666	-0.23747793529892383	1.8828397418614842	-0.6715766279120301	-0.24611135652021518	1.883835165745841	-0.6050519530102788	-0.2434266316975986	1.732494854094277	-0.5137127378164086	-0.2510156137964661	1.573297501533297	-0.393546619729719	-0.23376476382876518	1.5137686669571417	-0.36060302144285655	-0.2419294744963749	1.5180304896204508	-0.3325217779548762	-0.2528342457267648	1.5681100209797034	-0.39945258569334985	-0.22795923747331362	1.8818847823401896	-0.7293696938768903	-0.23576388674505167	1.7144543349078987	-0.6668848788887034													-0.2423797829653074	2.05872778999952	-0.7364581853501816	-0.22423693572251147	2.12704196755381	-0.7128123782438319	-0.25748854968764745	2.0674797384873953	-0.6477127938421027	-0.27200965084504963	1.9746933977398524	-0.5917756342543553	-0.24956436306922325	1.9009772292360076	-0.5564725688951531	-0.23192559833898846	2.0499235111507232	-0.8194560666379145	-0.2290864738676292	1.9554977647543428	-0.8212576263705813	-0.9367603275987639	1.791558536934231	-0.09379667317984361
